<svg xmlns="http://www.w3.org/2000/svg" viewBox="0 0 782 138" width="782" height="138">
  <rect x="0" y="0" width="782" height="138" fill="#F5EEDD" rx="8"/>
  <g>
<rect x="20.0" y="20.0" width="11" height="11" rx="2" fill="#E4D9BE"></rect>
<rect x="20.0" y="34.0" width="11" height="11" rx="2" fill="#E4D9BE"></rect>
<rect x="20.0" y="48.0" width="11" height="11" rx="2" fill="#E4D9BE"></rect>
<rect x="20.0" y="62.0" width="11" height="11" rx="2" fill="#E4D9BE"></rect>
<rect x="20.0" y="76.0" width="11" height="11" rx="2" fill="#E4D9BE"></rect>
<rect x="20.0" y="90.0" width="11" height="11" rx="2" fill="#E4D9BE"></rect>
<rect x="20.0" y="104.0" width="11" height="11" rx="2" fill="#E4D9BE"></rect>
<rect x="34.0" y="104.0" width="11" height="11" rx="2" fill="#E4D9BE"></rect>
<rect x="34.0" y="90.0" width="11" height="11" rx="2" fill="#E4D9BE"></rect>
<rect x="34.0" y="76.0" width="11" height="11" rx="2" fill="#E4D9BE"></rect>
<rect x="34.0" y="62.0" width="11" height="11" rx="2" fill="#E4D9BE"></rect>
<rect x="34.0" y="48.0" width="11" height="11" rx="2" fill="#E4D9BE"></rect>
<rect x="34.0" y="34.0" width="11" height="11" rx="2" fill="#E4D9BE"></rect>
<rect x="34.0" y="20.0" width="11" height="11" rx="2" fill="#E4D9BE"></rect>
<rect x="48.0" y="20.0" width="11" height="11" rx="2" fill="#E4D9BE"></rect>
<rect x="48.0" y="34.0" width="11" height="11" rx="2" fill="#E4D9BE"></rect>
<rect x="48.0" y="48.0" width="11" height="11" rx="2" fill="#E4D9BE"></rect>
<rect x="48.0" y="62.0" width="11" height="11" rx="2" fill="#E4D9BE"></rect>
<rect x="48.0" y="76.0" width="11" height="11" rx="2" fill="#E4D9BE"></rect>
<rect x="48.0" y="90.0" width="11" height="11" rx="2" fill="#E4D9BE"></rect>
<rect x="48.0" y="104.0" width="11" height="11" rx="2" fill="#E4D9BE"></rect>
<rect x="62.0" y="104.0" width="11" height="11" rx="2" fill="#E4D9BE"></rect>
<rect x="62.0" y="90.0" width="11" height="11" rx="2" fill="#E4D9BE"></rect>
<rect x="62.0" y="76.0" width="11" height="11" rx="2" fill="#E4D9BE"></rect>
<rect x="62.0" y="62.0" width="11" height="11" rx="2" fill="#E4D9BE"></rect>
<rect x="62.0" y="48.0" width="11" height="11" rx="2" fill="#E4D9BE"></rect>
<rect x="62.0" y="34.0" width="11" height="11" rx="2" fill="#E4D9BE"></rect>
<rect x="62.0" y="20.0" width="11" height="11" rx="2" fill="#E4D9BE"></rect>
<rect x="76.0" y="20.0" width="11" height="11" rx="2" fill="#E4D9BE"></rect>
<rect x="76.0" y="34.0" width="11" height="11" rx="2" fill="#E4D9BE"></rect>
<rect x="76.0" y="48.0" width="11" height="11" rx="2" fill="#E4D9BE"></rect>
<rect x="76.0" y="62.0" width="11" height="11" rx="2" fill="#E4D9BE"></rect>
<rect x="76.0" y="76.0" width="11" height="11" rx="2" fill="#E4D9BE"></rect>
<rect x="76.0" y="90.0" width="11" height="11" rx="2" fill="#E4D9BE"></rect>
<rect x="76.0" y="104.0" width="11" height="11" rx="2" fill="#E4D9BE"></rect>
<rect x="90.0" y="104.0" width="11" height="11" rx="2" fill="#E4D9BE"></rect>
<rect x="90.0" y="90.0" width="11" height="11" rx="2" fill="#E4D9BE"></rect>
<rect x="90.0" y="76.0" width="11" height="11" rx="2" fill="#E4D9BE"></rect>
<rect x="90.0" y="62.0" width="11" height="11" rx="2" fill="#E4D9BE"></rect>
<rect x="90.0" y="48.0" width="11" height="11" rx="2" fill="#E4D9BE"></rect>
<rect x="90.0" y="34.0" width="11" height="11" rx="2" fill="#E4D9BE"></rect>
<rect x="90.0" y="20.0" width="11" height="11" rx="2" fill="#E4D9BE"></rect>
<rect x="104.0" y="20.0" width="11" height="11" rx="2" fill="#E4D9BE"></rect>
<rect x="104.0" y="34.0" width="11" height="11" rx="2" fill="#E4D9BE"></rect>
<rect x="104.0" y="48.0" width="11" height="11" rx="2" fill="#E4D9BE"></rect>
<rect x="104.0" y="62.0" width="11" height="11" rx="2" fill="#E4D9BE"></rect>
<rect x="104.0" y="76.0" width="11" height="11" rx="2" fill="#E4D9BE"></rect>
<rect x="104.0" y="90.0" width="11" height="11" rx="2" fill="#E4D9BE"></rect>
<rect x="104.0" y="104.0" width="11" height="11" rx="2" fill="#E4D9BE"></rect>
<rect x="118.0" y="104.0" width="11" height="11" rx="2" fill="#E4D9BE"></rect>
<rect x="118.0" y="90.0" width="11" height="11" rx="2" fill="#E4D9BE"></rect>
<rect x="118.0" y="76.0" width="11" height="11" rx="2" fill="#E4D9BE"></rect>
<rect x="118.0" y="62.0" width="11" height="11" rx="2" fill="#E4D9BE"></rect>
<rect x="118.0" y="48.0" width="11" height="11" rx="2" fill="#E4D9BE"></rect>
<rect x="118.0" y="34.0" width="11" height="11" rx="2" fill="#E4D9BE"></rect>
<rect x="118.0" y="20.0" width="11" height="11" rx="2" fill="#E4D9BE"></rect>
<rect x="132.0" y="20.0" width="11" height="11" rx="2" fill="#E4D9BE"></rect>
<rect x="132.0" y="34.0" width="11" height="11" rx="2" fill="#E4D9BE"></rect>
<rect x="132.0" y="48.0" width="11" height="11" rx="2" fill="#E4D9BE"></rect>
<rect x="132.0" y="62.0" width="11" height="11" rx="2" fill="#E4D9BE"></rect>
<rect x="132.0" y="76.0" width="11" height="11" rx="2" fill="#E4D9BE"></rect>
<rect x="132.0" y="90.0" width="11" height="11" rx="2" fill="#E4D9BE"></rect>
<rect x="132.0" y="104.0" width="11" height="11" rx="2" fill="#E4D9BE"></rect>
<rect x="146.0" y="104.0" width="11" height="11" rx="2" fill="#E4D9BE"></rect>
<rect x="146.0" y="90.0" width="11" height="11" rx="2" fill="#E4D9BE"></rect>
<rect x="146.0" y="76.0" width="11" height="11" rx="2" fill="#E4D9BE"></rect>
<rect x="146.0" y="62.0" width="11" height="11" rx="2" fill="#E4D9BE"></rect>
<rect x="146.0" y="48.0" width="11" height="11" rx="2" fill="#E4D9BE"></rect>
<rect x="146.0" y="34.0" width="11" height="11" rx="2" fill="#E4D9BE"></rect>
<rect x="146.0" y="20.0" width="11" height="11" rx="2" fill="#E4D9BE"></rect>
<rect x="160.0" y="20.0" width="11" height="11" rx="2" fill="#E4D9BE"></rect>
<rect x="160.0" y="34.0" width="11" height="11" rx="2" fill="#E4D9BE"></rect>
<rect x="160.0" y="48.0" width="11" height="11" rx="2" fill="#E4D9BE"></rect>
<rect x="160.0" y="62.0" width="11" height="11" rx="2" fill="#E4D9BE"></rect>
<rect x="160.0" y="76.0" width="11" height="11" rx="2" fill="#E4D9BE"></rect>
<rect x="160.0" y="90.0" width="11" height="11" rx="2" fill="#E4D9BE"></rect>
<rect x="160.0" y="104.0" width="11" height="11" rx="2" fill="#E4D9BE"></rect>
<rect x="174.0" y="104.0" width="11" height="11" rx="2" fill="#E4D9BE"></rect>
<rect x="174.0" y="90.0" width="11" height="11" rx="2" fill="#E4D9BE"></rect>
<rect x="174.0" y="76.0" width="11" height="11" rx="2" fill="#E4D9BE"></rect>
<rect x="174.0" y="62.0" width="11" height="11" rx="2" fill="#E4D9BE"></rect>
<rect x="174.0" y="48.0" width="11" height="11" rx="2" fill="#E4D9BE"></rect>
<rect x="174.0" y="34.0" width="11" height="11" rx="2" fill="#E4D9BE"></rect>
<rect x="174.0" y="20.0" width="11" height="11" rx="2" fill="#E4D9BE"></rect>
<rect x="188.0" y="20.0" width="11" height="11" rx="2" fill="#E4D9BE"></rect>
<rect x="188.0" y="34.0" width="11" height="11" rx="2" fill="#E4D9BE"></rect>
<rect x="188.0" y="48.0" width="11" height="11" rx="2" fill="#E4D9BE"></rect>
<rect x="188.0" y="62.0" width="11" height="11" rx="2" fill="#E4D9BE"></rect>
<rect x="188.0" y="76.0" width="11" height="11" rx="2" fill="#E4D9BE"></rect>
<rect x="188.0" y="90.0" width="11" height="11" rx="2" fill="#E4D9BE"></rect>
<rect x="188.0" y="104.0" width="11" height="11" rx="2" fill="#E4D9BE"></rect>
<rect x="202.0" y="104.0" width="11" height="11" rx="2" fill="#E4D9BE"></rect>
<rect x="202.0" y="90.0" width="11" height="11" rx="2" fill="#E4D9BE"></rect>
<rect x="202.0" y="76.0" width="11" height="11" rx="2" fill="#E4D9BE"></rect>
<rect x="202.0" y="62.0" width="11" height="11" rx="2" fill="#E4D9BE"></rect>
<rect x="202.0" y="48.0" width="11" height="11" rx="2" fill="#E4D9BE"></rect>
<rect x="202.0" y="34.0" width="11" height="11" rx="2" fill="#E4D9BE"></rect>
<rect x="202.0" y="20.0" width="11" height="11" rx="2" fill="#E4D9BE"></rect>
<rect x="216.0" y="20.0" width="11" height="11" rx="2" fill="#E4D9BE"></rect>
<rect x="216.0" y="34.0" width="11" height="11" rx="2" fill="#E4D9BE"></rect>
<rect x="216.0" y="48.0" width="11" height="11" rx="2" fill="#E4D9BE"></rect>
<rect x="216.0" y="62.0" width="11" height="11" rx="2" fill="#E4D9BE"></rect>
<rect x="216.0" y="76.0" width="11" height="11" rx="2" fill="#E4D9BE"></rect>
<rect x="216.0" y="90.0" width="11" height="11" rx="2" fill="#E4D9BE"></rect>
<rect x="216.0" y="104.0" width="11" height="11" rx="2" fill="#E4D9BE"></rect>
<rect x="230.0" y="104.0" width="11" height="11" rx="2" fill="#E4D9BE"></rect>
<rect x="230.0" y="90.0" width="11" height="11" rx="2" fill="#E4D9BE"></rect>
<rect x="230.0" y="76.0" width="11" height="11" rx="2" fill="#E4D9BE"></rect>
<rect x="230.0" y="62.0" width="11" height="11" rx="2" fill="#E4D9BE"></rect>
<rect x="230.0" y="48.0" width="11" height="11" rx="2" fill="#E4D9BE"></rect>
<rect x="230.0" y="34.0" width="11" height="11" rx="2" fill="#E4D9BE"></rect>
<rect x="230.0" y="20.0" width="11" height="11" rx="2" fill="#E4D9BE"></rect>
<rect x="244.0" y="20.0" width="11" height="11" rx="2" fill="#E4D9BE"></rect>
<rect x="244.0" y="34.0" width="11" height="11" rx="2" fill="#E4D9BE"></rect>
<rect x="244.0" y="48.0" width="11" height="11" rx="2" fill="#E4D9BE"></rect>
<rect x="244.0" y="62.0" width="11" height="11" rx="2" fill="#E4D9BE"></rect>
<rect x="244.0" y="76.0" width="11" height="11" rx="2" fill="#E4D9BE"></rect>
<rect x="244.0" y="90.0" width="11" height="11" rx="2" fill="#E4D9BE"></rect>
<rect x="244.0" y="104.0" width="11" height="11" rx="2" fill="#E4D9BE"></rect>
<rect x="258.0" y="104.0" width="11" height="11" rx="2" fill="#E4D9BE"></rect>
<rect x="258.0" y="90.0" width="11" height="11" rx="2" fill="#E4D9BE"></rect>
<rect x="258.0" y="76.0" width="11" height="11" rx="2" fill="#E4D9BE"></rect>
<rect x="258.0" y="62.0" width="11" height="11" rx="2" fill="#E4D9BE"></rect>
<rect x="258.0" y="48.0" width="11" height="11" rx="2" fill="#E4D9BE"></rect>
<rect x="258.0" y="34.0" width="11" height="11" rx="2" fill="#E4D9BE"></rect>
<rect x="258.0" y="20.0" width="11" height="11" rx="2" fill="#E4D9BE"></rect>
<rect x="272.0" y="20.0" width="11" height="11" rx="2" fill="#E4D9BE"></rect>
<rect x="272.0" y="34.0" width="11" height="11" rx="2" fill="#E4D9BE"></rect>
<rect x="272.0" y="48.0" width="11" height="11" rx="2" fill="#E4D9BE"></rect>
<rect x="272.0" y="62.0" width="11" height="11" rx="2" fill="#E4D9BE"></rect>
<rect x="272.0" y="76.0" width="11" height="11" rx="2" fill="#E4D9BE"></rect>
<rect x="272.0" y="90.0" width="11" height="11" rx="2" fill="#E4D9BE"></rect>
<rect x="272.0" y="104.0" width="11" height="11" rx="2" fill="#E4D9BE"></rect>
<rect x="286.0" y="104.0" width="11" height="11" rx="2" fill="#E4D9BE"></rect>
<rect x="286.0" y="90.0" width="11" height="11" rx="2" fill="#E4D9BE"></rect>
<rect x="286.0" y="76.0" width="11" height="11" rx="2" fill="#E4D9BE"></rect>
<rect x="286.0" y="62.0" width="11" height="11" rx="2" fill="#E4D9BE"></rect>
<rect x="286.0" y="48.0" width="11" height="11" rx="2" fill="#E4D9BE"></rect>
<rect x="286.0" y="34.0" width="11" height="11" rx="2" fill="#E4D9BE"></rect>
<rect x="286.0" y="20.0" width="11" height="11" rx="2" fill="#E4D9BE"></rect>
<rect x="300.0" y="20.0" width="11" height="11" rx="2" fill="#E4D9BE"></rect>
<rect x="300.0" y="34.0" width="11" height="11" rx="2" fill="#E4D9BE"></rect>
<rect x="300.0" y="48.0" width="11" height="11" rx="2" fill="#E4D9BE"></rect>
<rect x="300.0" y="62.0" width="11" height="11" rx="2" fill="#E4D9BE"></rect>
<rect x="300.0" y="76.0" width="11" height="11" rx="2" fill="#E4D9BE"></rect>
<rect x="300.0" y="90.0" width="11" height="11" rx="2" fill="#E4D9BE"></rect>
<rect x="300.0" y="104.0" width="11" height="11" rx="2" fill="#E4D9BE"></rect>
<rect x="314.0" y="104.0" width="11" height="11" rx="2" fill="#E4D9BE"></rect>
<rect x="314.0" y="90.0" width="11" height="11" rx="2" fill="#E4D9BE"></rect>
<rect x="314.0" y="76.0" width="11" height="11" rx="2" fill="#E4D9BE"></rect>
<rect x="314.0" y="62.0" width="11" height="11" rx="2" fill="#E4D9BE"></rect>
<rect x="314.0" y="48.0" width="11" height="11" rx="2" fill="#E4D9BE"></rect>
<rect x="314.0" y="34.0" width="11" height="11" rx="2" fill="#E4D9BE"></rect>
<rect x="314.0" y="20.0" width="11" height="11" rx="2" fill="#E4D9BE"></rect>
<rect x="328.0" y="20.0" width="11" height="11" rx="2" fill="#E4D9BE"></rect>
<rect x="328.0" y="34.0" width="11" height="11" rx="2" fill="#E4D9BE"></rect>
<rect x="328.0" y="48.0" width="11" height="11" rx="2" fill="#E4D9BE"></rect>
<rect x="328.0" y="62.0" width="11" height="11" rx="2" fill="#E4D9BE"></rect>
<rect x="328.0" y="76.0" width="11" height="11" rx="2" fill="#E4D9BE"></rect>
<rect x="328.0" y="90.0" width="11" height="11" rx="2" fill="#E4D9BE"></rect>
<rect x="328.0" y="104.0" width="11" height="11" rx="2" fill="#E4D9BE"></rect>
<rect x="342.0" y="104.0" width="11" height="11" rx="2" fill="#E4D9BE"></rect>
<rect x="342.0" y="90.0" width="11" height="11" rx="2" fill="#E4D9BE"></rect>
<rect x="342.0" y="76.0" width="11" height="11" rx="2" fill="#E4D9BE"></rect>
<rect x="342.0" y="62.0" width="11" height="11" rx="2" fill="#E4D9BE"></rect>
<rect x="342.0" y="48.0" width="11" height="11" rx="2" fill="#E4D9BE"></rect>
<rect x="342.0" y="34.0" width="11" height="11" rx="2" fill="#E4D9BE"></rect>
<rect x="342.0" y="20.0" width="11" height="11" rx="2" fill="#E4D9BE"></rect>
<rect x="356.0" y="20.0" width="11" height="11" rx="2" fill="#E4D9BE"></rect>
<rect x="356.0" y="34.0" width="11" height="11" rx="2" fill="#E4D9BE"></rect>
<rect x="356.0" y="48.0" width="11" height="11" rx="2" fill="#E4D9BE"></rect>
<rect x="356.0" y="62.0" width="11" height="11" rx="2" fill="#E4D9BE"></rect>
<rect x="356.0" y="76.0" width="11" height="11" rx="2" fill="#E4D9BE"></rect>
<rect x="356.0" y="90.0" width="11" height="11" rx="2" fill="#E4D9BE"></rect>
<rect x="356.0" y="104.0" width="11" height="11" rx="2" fill="#E4D9BE"></rect>
<rect x="370.0" y="104.0" width="11" height="11" rx="2" fill="#E4D9BE"></rect>
<rect x="370.0" y="90.0" width="11" height="11" rx="2" fill="#E4D9BE"></rect>
<rect x="370.0" y="76.0" width="11" height="11" rx="2" fill="#E4D9BE"></rect>
<rect x="370.0" y="62.0" width="11" height="11" rx="2" fill="#E4D9BE"></rect>
<rect x="370.0" y="48.0" width="11" height="11" rx="2" fill="#E4D9BE"></rect>
<rect x="370.0" y="34.0" width="11" height="11" rx="2" fill="#E4D9BE"></rect>
<rect x="370.0" y="20.0" width="11" height="11" rx="2" fill="#E4D9BE"></rect>
<rect x="384.0" y="20.0" width="11" height="11" rx="2" fill="#E4D9BE"></rect>
<rect x="384.0" y="34.0" width="11" height="11" rx="2" fill="#E4D9BE"></rect>
<rect x="384.0" y="48.0" width="11" height="11" rx="2" fill="#E4D9BE"></rect>
<rect x="384.0" y="62.0" width="11" height="11" rx="2" fill="#E4D9BE"></rect>
<rect x="384.0" y="76.0" width="11" height="11" rx="2" fill="#E4D9BE"></rect>
<rect x="384.0" y="90.0" width="11" height="11" rx="2" fill="#E4D9BE"></rect>
<rect x="384.0" y="104.0" width="11" height="11" rx="2" fill="#E4D9BE"></rect>
<rect x="398.0" y="104.0" width="11" height="11" rx="2" fill="#E4D9BE"></rect>
<rect x="398.0" y="90.0" width="11" height="11" rx="2" fill="#E4D9BE"></rect>
<rect x="398.0" y="76.0" width="11" height="11" rx="2" fill="#E4D9BE"></rect>
<rect x="398.0" y="62.0" width="11" height="11" rx="2" fill="#E4D9BE"></rect>
<rect x="398.0" y="48.0" width="11" height="11" rx="2" fill="#E4D9BE"></rect>
<rect x="398.0" y="34.0" width="11" height="11" rx="2" fill="#E4D9BE"></rect>
<rect x="398.0" y="20.0" width="11" height="11" rx="2" fill="#E4D9BE"></rect>
<rect x="412.0" y="20.0" width="11" height="11" rx="2" fill="#E4D9BE"></rect>
<rect x="412.0" y="34.0" width="11" height="11" rx="2" fill="#E4D9BE"></rect>
<rect x="412.0" y="48.0" width="11" height="11" rx="2" fill="#E4D9BE"></rect>
<rect x="412.0" y="62.0" width="11" height="11" rx="2" fill="#E4D9BE"></rect>
<rect x="412.0" y="76.0" width="11" height="11" rx="2" fill="#E4D9BE"></rect>
<rect x="412.0" y="90.0" width="11" height="11" rx="2" fill="#E4D9BE"></rect>
<rect x="412.0" y="104.0" width="11" height="11" rx="2" fill="#E4D9BE"></rect>
<rect x="426.0" y="104.0" width="11" height="11" rx="2" fill="#E4D9BE"></rect>
<rect x="426.0" y="90.0" width="11" height="11" rx="2" fill="#E4D9BE"></rect>
<rect x="426.0" y="76.0" width="11" height="11" rx="2" fill="#E4D9BE"></rect>
<rect x="426.0" y="62.0" width="11" height="11" rx="2" fill="#E4D9BE"></rect>
<rect x="426.0" y="48.0" width="11" height="11" rx="2" fill="#E4D9BE"></rect>
<rect x="426.0" y="34.0" width="11" height="11" rx="2" fill="#E4D9BE"></rect>
<rect x="426.0" y="20.0" width="11" height="11" rx="2" fill="#E4D9BE"></rect>
<rect x="440.0" y="20.0" width="11" height="11" rx="2" fill="#E4D9BE"></rect>
<rect x="440.0" y="34.0" width="11" height="11" rx="2" fill="#E4D9BE"></rect>
<rect x="440.0" y="48.0" width="11" height="11" rx="2" fill="#E4D9BE"></rect>
<rect x="440.0" y="62.0" width="11" height="11" rx="2" fill="#E4D9BE"></rect>
<rect x="440.0" y="76.0" width="11" height="11" rx="2" fill="#E4D9BE"></rect>
<rect x="440.0" y="90.0" width="11" height="11" rx="2" fill="#E4D9BE"></rect>
<rect x="440.0" y="104.0" width="11" height="11" rx="2" fill="#E4D9BE"></rect>
<rect x="454.0" y="104.0" width="11" height="11" rx="2" fill="#E4D9BE"></rect>
<rect x="454.0" y="90.0" width="11" height="11" rx="2" fill="#E4D9BE"></rect>
<rect x="454.0" y="76.0" width="11" height="11" rx="2" fill="#E4D9BE"></rect>
<rect x="454.0" y="62.0" width="11" height="11" rx="2" fill="#E4D9BE"></rect>
<rect x="454.0" y="48.0" width="11" height="11" rx="2" fill="#E4D9BE"></rect>
<rect x="454.0" y="34.0" width="11" height="11" rx="2" fill="#E4D9BE"></rect>
<rect x="454.0" y="20.0" width="11" height="11" rx="2" fill="#E4D9BE"></rect>
<rect x="468.0" y="20.0" width="11" height="11" rx="2" fill="#E4D9BE"></rect>
<rect x="468.0" y="34.0" width="11" height="11" rx="2" fill="#E4D9BE"></rect>
<rect x="468.0" y="48.0" width="11" height="11" rx="2" fill="#E4D9BE"></rect>
<rect x="468.0" y="62.0" width="11" height="11" rx="2" fill="#E4D9BE"></rect>
<rect x="468.0" y="76.0" width="11" height="11" rx="2" fill="#E4D9BE"></rect>
<rect x="468.0" y="90.0" width="11" height="11" rx="2" fill="#E4D9BE"></rect>
<rect x="468.0" y="104.0" width="11" height="11" rx="2" fill="#E4D9BE"></rect>
<rect x="482.0" y="104.0" width="11" height="11" rx="2" fill="#E4D9BE"></rect>
<rect x="482.0" y="90.0" width="11" height="11" rx="2" fill="#E4D9BE"></rect>
<rect x="482.0" y="76.0" width="11" height="11" rx="2" fill="#E4D9BE"></rect>
<rect x="482.0" y="62.0" width="11" height="11" rx="2" fill="#E4D9BE"></rect>
<rect x="482.0" y="48.0" width="11" height="11" rx="2" fill="#E4D9BE"></rect>
<rect x="482.0" y="34.0" width="11" height="11" rx="2" fill="#E4D9BE"></rect>
<rect x="482.0" y="20.0" width="11" height="11" rx="2" fill="#E4D9BE"></rect>
<rect x="496.0" y="20.0" width="11" height="11" rx="2" fill="#E4D9BE"></rect>
<rect x="496.0" y="34.0" width="11" height="11" rx="2" fill="#E4D9BE"></rect>
<rect x="496.0" y="48.0" width="11" height="11" rx="2" fill="#E4D9BE"></rect>
<rect x="496.0" y="62.0" width="11" height="11" rx="2" fill="#E4D9BE"></rect>
<rect x="496.0" y="76.0" width="11" height="11" rx="2" fill="#E4D9BE"></rect>
<rect x="496.0" y="90.0" width="11" height="11" rx="2" fill="#E4D9BE"></rect>
<rect x="496.0" y="104.0" width="11" height="11" rx="2" fill="#E4D9BE"></rect>
<rect x="510.0" y="104.0" width="11" height="11" rx="2" fill="#E4D9BE"></rect>
<rect x="510.0" y="90.0" width="11" height="11" rx="2" fill="#E4D9BE"></rect>
<rect x="510.0" y="76.0" width="11" height="11" rx="2" fill="#E4D9BE"></rect>
<rect x="510.0" y="62.0" width="11" height="11" rx="2" fill="#E4D9BE"></rect>
<rect x="510.0" y="48.0" width="11" height="11" rx="2" fill="#E4D9BE"></rect>
<rect x="510.0" y="34.0" width="11" height="11" rx="2" fill="#E4D9BE"></rect>
<rect x="510.0" y="20.0" width="11" height="11" rx="2" fill="#E4D9BE"></rect>
<rect x="524.0" y="20.0" width="11" height="11" rx="2" fill="#E4D9BE"></rect>
<rect x="524.0" y="34.0" width="11" height="11" rx="2" fill="#E4D9BE"></rect>
<rect x="524.0" y="48.0" width="11" height="11" rx="2" fill="#E4D9BE"></rect>
<rect x="524.0" y="62.0" width="11" height="11" rx="2" fill="#E4D9BE"></rect>
<rect x="524.0" y="76.0" width="11" height="11" rx="2" fill="#E4D9BE"></rect>
<rect x="524.0" y="90.0" width="11" height="11" rx="2" fill="#E4D9BE"></rect>
<rect x="524.0" y="104.0" width="11" height="11" rx="2" fill="#E4D9BE"></rect>
<rect x="538.0" y="104.0" width="11" height="11" rx="2" fill="#E4D9BE"></rect>
<rect x="538.0" y="90.0" width="11" height="11" rx="2" fill="#E4D9BE"></rect>
<rect x="538.0" y="76.0" width="11" height="11" rx="2" fill="#E4D9BE"></rect>
<rect x="538.0" y="62.0" width="11" height="11" rx="2" fill="#E4D9BE"></rect>
<rect x="538.0" y="48.0" width="11" height="11" rx="2" fill="#E4D9BE"></rect>
<rect x="538.0" y="34.0" width="11" height="11" rx="2" fill="#E4D9BE"></rect>
<rect x="538.0" y="20.0" width="11" height="11" rx="2" fill="#E4D9BE"></rect>
<rect x="552.0" y="20.0" width="11" height="11" rx="2" fill="#E4D9BE"></rect>
<rect x="552.0" y="34.0" width="11" height="11" rx="2" fill="#E4D9BE"></rect>
<rect x="552.0" y="48.0" width="11" height="11" rx="2" fill="#E4D9BE"></rect>
<rect x="552.0" y="62.0" width="11" height="11" rx="2" fill="#E4D9BE"></rect>
<rect x="552.0" y="76.0" width="11" height="11" rx="2" fill="#E4D9BE"></rect>
<rect x="552.0" y="90.0" width="11" height="11" rx="2" fill="#E4D9BE"></rect>
<rect x="552.0" y="104.0" width="11" height="11" rx="2" fill="#E4D9BE"></rect>
<rect x="566.0" y="104.0" width="11" height="11" rx="2" fill="#E4D9BE"></rect>
<rect x="566.0" y="90.0" width="11" height="11" rx="2" fill="#E4D9BE"></rect>
<rect x="566.0" y="76.0" width="11" height="11" rx="2" fill="#E4D9BE"></rect>
<rect x="566.0" y="62.0" width="11" height="11" rx="2" fill="#E4D9BE"></rect>
<rect x="566.0" y="48.0" width="11" height="11" rx="2" fill="#E4D9BE"></rect>
<rect x="566.0" y="34.0" width="11" height="11" rx="2" fill="#E4D9BE"></rect>
<rect x="566.0" y="20.0" width="11" height="11" rx="2" fill="#E4D9BE"></rect>
<rect x="580.0" y="20.0" width="11" height="11" rx="2" fill="#E4D9BE"></rect>
<rect x="580.0" y="34.0" width="11" height="11" rx="2" fill="#E4D9BE"></rect>
<rect x="580.0" y="48.0" width="11" height="11" rx="2" fill="#E4D9BE"></rect>
<rect x="580.0" y="62.0" width="11" height="11" rx="2" fill="#E4D9BE"></rect>
<rect x="580.0" y="76.0" width="11" height="11" rx="2" fill="#E4D9BE"></rect>
<rect x="580.0" y="90.0" width="11" height="11" rx="2" fill="#E4D9BE"></rect>
<rect x="580.0" y="104.0" width="11" height="11" rx="2" fill="#E4D9BE"></rect>
<rect x="594.0" y="104.0" width="11" height="11" rx="2" fill="#E4D9BE"></rect>
<rect x="594.0" y="90.0" width="11" height="11" rx="2" fill="#E4D9BE"></rect>
<rect x="594.0" y="76.0" width="11" height="11" rx="2" fill="#E4D9BE"></rect>
<rect x="594.0" y="62.0" width="11" height="11" rx="2" fill="#E4D9BE"></rect>
<rect x="594.0" y="48.0" width="11" height="11" rx="2" fill="#E4D9BE"></rect>
<rect x="594.0" y="34.0" width="11" height="11" rx="2" fill="#E4D9BE"></rect>
<rect x="594.0" y="20.0" width="11" height="11" rx="2" fill="#E4D9BE"></rect>
<rect x="608.0" y="20.0" width="11" height="11" rx="2" fill="#E4D9BE"></rect>
<rect x="608.0" y="34.0" width="11" height="11" rx="2" fill="#E4D9BE"></rect>
<rect x="608.0" y="48.0" width="11" height="11" rx="2" fill="#E4D9BE"></rect>
<rect x="608.0" y="62.0" width="11" height="11" rx="2" fill="#E4D9BE"></rect>
<rect x="608.0" y="76.0" width="11" height="11" rx="2" fill="#E4D9BE"></rect>
<rect x="608.0" y="90.0" width="11" height="11" rx="2" fill="#E4D9BE"></rect>
<rect x="608.0" y="104.0" width="11" height="11" rx="2" fill="#E4D9BE"></rect>
<rect x="622.0" y="104.0" width="11" height="11" rx="2" fill="#E4D9BE"></rect>
<rect x="622.0" y="90.0" width="11" height="11" rx="2" fill="#E4D9BE"></rect>
<rect x="622.0" y="76.0" width="11" height="11" rx="2" fill="#E4D9BE"></rect>
<rect x="622.0" y="62.0" width="11" height="11" rx="2" fill="#E4D9BE"></rect>
<rect x="622.0" y="48.0" width="11" height="11" rx="2" fill="#E4D9BE"></rect>
<rect x="622.0" y="34.0" width="11" height="11" rx="2" fill="#E4D9BE"></rect>
<rect x="622.0" y="20.0" width="11" height="11" rx="2" fill="#E4D9BE"></rect>
<rect x="636.0" y="20.0" width="11" height="11" rx="2" fill="#E4D9BE"></rect>
<rect x="636.0" y="34.0" width="11" height="11" rx="2" fill="#E4D9BE"></rect>
<rect x="636.0" y="48.0" width="11" height="11" rx="2" fill="#E4D9BE"></rect>
<rect x="636.0" y="62.0" width="11" height="11" rx="2" fill="#E4D9BE"></rect>
<rect x="636.0" y="76.0" width="11" height="11" rx="2" fill="#E4D9BE"></rect>
<rect x="636.0" y="90.0" width="11" height="11" rx="2" fill="#E4D9BE"></rect>
<rect x="636.0" y="104.0" width="11" height="11" rx="2" fill="#E4D9BE"></rect>
<rect x="650.0" y="104.0" width="11" height="11" rx="2" fill="#E4D9BE"></rect>
<rect x="650.0" y="90.0" width="11" height="11" rx="2" fill="#C6A94A"><animate attributeName="fill" begin="31.600s" dur="0.080s" fill="freeze" values="#C6A94A;#DDD0B0" />
      <animate attributeName="rx" begin="31.600s" dur="0.080s" fill="freeze" values="2;5" /></rect>
<rect x="650.0" y="76.0" width="11" height="11" rx="2" fill="#E4D9BE"></rect>
<rect x="650.0" y="62.0" width="11" height="11" rx="2" fill="#E4D9BE"></rect>
<rect x="650.0" y="48.0" width="11" height="11" rx="2" fill="#E4D9BE"></rect>
<rect x="650.0" y="34.0" width="11" height="11" rx="2" fill="#E4D9BE"></rect>
<rect x="650.0" y="20.0" width="11" height="11" rx="2" fill="#E4D9BE"></rect>
<rect x="664.0" y="20.0" width="11" height="11" rx="2" fill="#E4D9BE"></rect>
<rect x="664.0" y="34.0" width="11" height="11" rx="2" fill="#E4D9BE"></rect>
<rect x="664.0" y="48.0" width="11" height="11" rx="2" fill="#E4D9BE"></rect>
<rect x="664.0" y="62.0" width="11" height="11" rx="2" fill="#D8C77A"><animate attributeName="fill" begin="32.500s" dur="0.080s" fill="freeze" values="#D8C77A;#DDD0B0" />
      <animate attributeName="rx" begin="32.500s" dur="0.080s" fill="freeze" values="2;5" /></rect>
<rect x="664.0" y="76.0" width="11" height="11" rx="2" fill="#E4D9BE"></rect>
<rect x="664.0" y="90.0" width="11" height="11" rx="2" fill="#E4D9BE"></rect>
<rect x="664.0" y="104.0" width="11" height="11" rx="2" fill="#E4D9BE"></rect>
<rect x="678.0" y="104.0" width="11" height="11" rx="2" fill="#7A5218"><animate attributeName="fill" begin="32.900s" dur="0.080s" fill="freeze" values="#7A5218;#DDD0B0" />
      <animate attributeName="rx" begin="32.900s" dur="0.080s" fill="freeze" values="2;5" /></rect>
<rect x="678.0" y="90.0" width="11" height="11" rx="2" fill="#E4D9BE"></rect>
<rect x="678.0" y="76.0" width="11" height="11" rx="2" fill="#E4D9BE"></rect>
<rect x="678.0" y="62.0" width="11" height="11" rx="2" fill="#7A5218"><animate attributeName="fill" begin="33.200s" dur="0.080s" fill="freeze" values="#7A5218;#DDD0B0" />
      <animate attributeName="rx" begin="33.200s" dur="0.080s" fill="freeze" values="2;5" /></rect>
<rect x="678.0" y="48.0" width="11" height="11" rx="2" fill="#E4D9BE"></rect>
<rect x="678.0" y="34.0" width="11" height="11" rx="2" fill="#E4D9BE"></rect>
<rect x="678.0" y="20.0" width="11" height="11" rx="2" fill="#E4D9BE"></rect>
<rect x="692.0" y="20.0" width="11" height="11" rx="2" fill="#E4D9BE"></rect>
<rect x="692.0" y="34.0" width="11" height="11" rx="2" fill="#E4D9BE"></rect>
<rect x="692.0" y="48.0" width="11" height="11" rx="2" fill="#E4D9BE"></rect>
<rect x="692.0" y="62.0" width="11" height="11" rx="2" fill="#E4D9BE"></rect>
<rect x="692.0" y="76.0" width="11" height="11" rx="2" fill="#E4D9BE"></rect>
<rect x="692.0" y="90.0" width="11" height="11" rx="2" fill="#E4D9BE"></rect>
<rect x="692.0" y="104.0" width="11" height="11" rx="2" fill="#E4D9BE"></rect>
<rect x="706.0" y="104.0" width="11" height="11" rx="2" fill="#E4D9BE"></rect>
<rect x="706.0" y="90.0" width="11" height="11" rx="2" fill="#E4D9BE"></rect>
<rect x="706.0" y="76.0" width="11" height="11" rx="2" fill="#E4D9BE"></rect>
<rect x="706.0" y="62.0" width="11" height="11" rx="2" fill="#E4D9BE"></rect>
<rect x="706.0" y="48.0" width="11" height="11" rx="2" fill="#E4D9BE"></rect>
<rect x="706.0" y="34.0" width="11" height="11" rx="2" fill="#D8C77A"><animate attributeName="fill" begin="34.800s" dur="0.080s" fill="freeze" values="#D8C77A;#DDD0B0" />
      <animate attributeName="rx" begin="34.800s" dur="0.080s" fill="freeze" values="2;5" /></rect>
<rect x="706.0" y="20.0" width="11" height="11" rx="2" fill="#E4D9BE"></rect>
<rect x="720.0" y="20.0" width="11" height="11" rx="2" fill="#E4D9BE"></rect>
<rect x="720.0" y="34.0" width="11" height="11" rx="2" fill="#E4D9BE"></rect>
<rect x="720.0" y="48.0" width="11" height="11" rx="2" fill="#E4D9BE"></rect>
<rect x="720.0" y="62.0" width="11" height="11" rx="2" fill="#E4D9BE"></rect>
<rect x="720.0" y="76.0" width="11" height="11" rx="2" fill="#E4D9BE"></rect>
<rect x="720.0" y="90.0" width="11" height="11" rx="2" fill="#E4D9BE"></rect>
<rect x="720.0" y="104.0" width="11" height="11" rx="2" fill="#A67C2E"><animate attributeName="fill" begin="35.600s" dur="0.080s" fill="freeze" values="#A67C2E;#DDD0B0" />
      <animate attributeName="rx" begin="35.600s" dur="0.080s" fill="freeze" values="2;5" /></rect>
<rect x="734.0" y="104.0" width="11" height="11" rx="2" fill="#E4D9BE"></rect>
<rect x="734.0" y="90.0" width="11" height="11" rx="2" fill="#E4D9BE"></rect>
<rect x="734.0" y="76.0" width="11" height="11" rx="2" fill="#E4D9BE"></rect>
<rect x="734.0" y="62.0" width="11" height="11" rx="2" fill="#E4D9BE"></rect>
<rect x="734.0" y="48.0" width="11" height="11" rx="2" fill="#E4D9BE"></rect>
<rect x="734.0" y="34.0" width="11" height="11" rx="2" fill="#E4D9BE"></rect>
<rect x="734.0" y="20.0" width="11" height="11" rx="2" fill="#E4D9BE"></rect>
<rect x="748.0" y="20.0" width="11" height="11" rx="2" fill="#E4D9BE"></rect>
<rect x="748.0" y="34.0" width="11" height="11" rx="2" fill="#E4D9BE"></rect>
  </g>
  
  <g id="bug">
    <ellipse cx="0" cy="0" rx="5.5" ry="4" fill="#C0392B" stroke="#3B2A1F" stroke-width="0.6"/>
    <circle cx="4.2" cy="0" r="2.4" fill="#1B1B1B" stroke="#3B2A1F" stroke-width="0.5"/>
    <circle cx="-2" cy="-1.3" r="1.1" fill="#1B1B1B"/>
    <circle cx="0.5" cy="1.4" r="1.1" fill="#1B1B1B"/>
    <circle cx="-1" cy="1.6" r="0.9" fill="#1B1B1B"/>
    <line x1="5.5" y1="-1" x2="7.5" y2="-2.6" stroke="#3B2A1F" stroke-width="0.5"/>
    <line x1="5.5" y1="1" x2="7.5" y2="2.6" stroke="#3B2A1F" stroke-width="0.5"/>
    <animateMotion dur="36.6s" repeatCount="indefinite" rotate="auto" path="M 25.5,25.5 L 25.5,39.5 L 25.5,53.5 L 25.5,67.5 L 25.5,81.5 L 25.5,95.5 L 25.5,109.5 L 39.5,109.5 L 39.5,95.5 L 39.5,81.5 L 39.5,67.5 L 39.5,53.5 L 39.5,39.5 L 39.5,25.5 L 53.5,25.5 L 53.5,39.5 L 53.5,53.5 L 53.5,67.5 L 53.5,81.5 L 53.5,95.5 L 53.5,109.5 L 67.5,109.5 L 67.5,95.5 L 67.5,81.5 L 67.5,67.5 L 67.5,53.5 L 67.5,39.5 L 67.5,25.5 L 81.5,25.5 L 81.5,39.5 L 81.5,53.5 L 81.5,67.5 L 81.5,81.5 L 81.5,95.5 L 81.5,109.5 L 95.5,109.5 L 95.5,95.5 L 95.5,81.5 L 95.5,67.5 L 95.5,53.5 L 95.5,39.5 L 95.5,25.5 L 109.5,25.5 L 109.5,39.5 L 109.5,53.5 L 109.5,67.5 L 109.5,81.5 L 109.5,95.5 L 109.5,109.5 L 123.5,109.5 L 123.5,95.5 L 123.5,81.5 L 123.5,67.5 L 123.5,53.5 L 123.5,39.5 L 123.5,25.5 L 137.5,25.5 L 137.5,39.5 L 137.5,53.5 L 137.5,67.5 L 137.5,81.5 L 137.5,95.5 L 137.5,109.5 L 151.5,109.5 L 151.5,95.5 L 151.5,81.5 L 151.5,67.5 L 151.5,53.5 L 151.5,39.5 L 151.5,25.5 L 165.5,25.5 L 165.5,39.5 L 165.5,53.5 L 165.5,67.5 L 165.5,81.5 L 165.5,95.5 L 165.5,109.5 L 179.5,109.5 L 179.5,95.5 L 179.5,81.5 L 179.5,67.5 L 179.5,53.5 L 179.5,39.5 L 179.5,25.5 L 193.5,25.5 L 193.5,39.5 L 193.5,53.5 L 193.5,67.5 L 193.5,81.5 L 193.5,95.5 L 193.5,109.5 L 207.5,109.5 L 207.5,95.5 L 207.5,81.5 L 207.5,67.5 L 207.5,53.5 L 207.5,39.5 L 207.5,25.5 L 221.5,25.5 L 221.5,39.5 L 221.5,53.5 L 221.5,67.5 L 221.5,81.5 L 221.5,95.5 L 221.5,109.5 L 235.5,109.5 L 235.5,95.5 L 235.5,81.5 L 235.5,67.5 L 235.5,53.5 L 235.5,39.5 L 235.5,25.5 L 249.5,25.5 L 249.5,39.5 L 249.5,53.5 L 249.5,67.5 L 249.5,81.5 L 249.5,95.5 L 249.5,109.5 L 263.5,109.5 L 263.5,95.5 L 263.5,81.5 L 263.5,67.5 L 263.5,53.5 L 263.5,39.5 L 263.5,25.5 L 277.5,25.5 L 277.5,39.5 L 277.5,53.5 L 277.5,67.5 L 277.5,81.5 L 277.5,95.5 L 277.5,109.5 L 291.5,109.5 L 291.5,95.5 L 291.5,81.5 L 291.5,67.5 L 291.5,53.5 L 291.5,39.5 L 291.5,25.5 L 305.5,25.5 L 305.5,39.5 L 305.5,53.5 L 305.5,67.5 L 305.5,81.5 L 305.5,95.5 L 305.5,109.5 L 319.5,109.5 L 319.5,95.5 L 319.5,81.5 L 319.5,67.5 L 319.5,53.5 L 319.5,39.5 L 319.5,25.5 L 333.5,25.5 L 333.5,39.5 L 333.5,53.5 L 333.5,67.5 L 333.5,81.5 L 333.5,95.5 L 333.5,109.5 L 347.5,109.5 L 347.5,95.5 L 347.5,81.5 L 347.5,67.5 L 347.5,53.5 L 347.5,39.5 L 347.5,25.5 L 361.5,25.5 L 361.5,39.5 L 361.5,53.5 L 361.5,67.5 L 361.5,81.5 L 361.5,95.5 L 361.5,109.5 L 375.5,109.5 L 375.5,95.5 L 375.5,81.5 L 375.5,67.5 L 375.5,53.5 L 375.5,39.5 L 375.5,25.5 L 389.5,25.5 L 389.5,39.5 L 389.5,53.5 L 389.5,67.5 L 389.5,81.5 L 389.5,95.5 L 389.5,109.5 L 403.5,109.5 L 403.5,95.5 L 403.5,81.5 L 403.5,67.5 L 403.5,53.5 L 403.5,39.5 L 403.5,25.5 L 417.5,25.5 L 417.5,39.5 L 417.5,53.5 L 417.5,67.5 L 417.5,81.5 L 417.5,95.5 L 417.5,109.5 L 431.5,109.5 L 431.5,95.5 L 431.5,81.5 L 431.5,67.5 L 431.5,53.5 L 431.5,39.5 L 431.5,25.5 L 445.5,25.5 L 445.5,39.5 L 445.5,53.5 L 445.5,67.5 L 445.5,81.5 L 445.5,95.5 L 445.5,109.5 L 459.5,109.5 L 459.5,95.5 L 459.5,81.5 L 459.5,67.5 L 459.5,53.5 L 459.5,39.5 L 459.5,25.5 L 473.5,25.5 L 473.5,39.5 L 473.5,53.5 L 473.5,67.5 L 473.5,81.5 L 473.5,95.5 L 473.5,109.5 L 487.5,109.5 L 487.5,95.5 L 487.5,81.5 L 487.5,67.5 L 487.5,53.5 L 487.5,39.5 L 487.5,25.5 L 501.5,25.5 L 501.5,39.5 L 501.5,53.5 L 501.5,67.5 L 501.5,81.5 L 501.5,95.5 L 501.5,109.5 L 515.5,109.5 L 515.5,95.5 L 515.5,81.5 L 515.5,67.5 L 515.5,53.5 L 515.5,39.5 L 515.5,25.5 L 529.5,25.5 L 529.5,39.5 L 529.5,53.5 L 529.5,67.5 L 529.5,81.5 L 529.5,95.5 L 529.5,109.5 L 543.5,109.5 L 543.5,95.5 L 543.5,81.5 L 543.5,67.5 L 543.5,53.5 L 543.5,39.5 L 543.5,25.5 L 557.5,25.5 L 557.5,39.5 L 557.5,53.5 L 557.5,67.5 L 557.5,81.5 L 557.5,95.5 L 557.5,109.5 L 571.5,109.5 L 571.5,95.5 L 571.5,81.5 L 571.5,67.5 L 571.5,53.5 L 571.5,39.5 L 571.5,25.5 L 585.5,25.5 L 585.5,39.5 L 585.5,53.5 L 585.5,67.5 L 585.5,81.5 L 585.5,95.5 L 585.5,109.5 L 599.5,109.5 L 599.5,95.5 L 599.5,81.5 L 599.5,67.5 L 599.5,53.5 L 599.5,39.5 L 599.5,25.5 L 613.5,25.5 L 613.5,39.5 L 613.5,53.5 L 613.5,67.5 L 613.5,81.5 L 613.5,95.5 L 613.5,109.5 L 627.5,109.5 L 627.5,95.5 L 627.5,81.5 L 627.5,67.5 L 627.5,53.5 L 627.5,39.5 L 627.5,25.5 L 641.5,25.5 L 641.5,39.5 L 641.5,53.5 L 641.5,67.5 L 641.5,81.5 L 641.5,95.5 L 641.5,109.5 L 655.5,109.5 L 655.5,95.5 L 655.5,81.5 L 655.5,67.5 L 655.5,53.5 L 655.5,39.5 L 655.5,25.5 L 669.5,25.5 L 669.5,39.5 L 669.5,53.5 L 669.5,67.5 L 669.5,81.5 L 669.5,95.5 L 669.5,109.5 L 683.5,109.5 L 683.5,95.5 L 683.5,81.5 L 683.5,67.5 L 683.5,53.5 L 683.5,39.5 L 683.5,25.5 L 697.5,25.5 L 697.5,39.5 L 697.5,53.5 L 697.5,67.5 L 697.5,81.5 L 697.5,95.5 L 697.5,109.5 L 711.5,109.5 L 711.5,95.5 L 711.5,81.5 L 711.5,67.5 L 711.5,53.5 L 711.5,39.5 L 711.5,25.5 L 725.5,25.5 L 725.5,39.5 L 725.5,53.5 L 725.5,67.5 L 725.5,81.5 L 725.5,95.5 L 725.5,109.5 L 739.5,109.5 L 739.5,95.5 L 739.5,81.5 L 739.5,67.5 L 739.5,53.5 L 739.5,39.5 L 739.5,25.5 L 753.5,25.5 L 753.5,39.5 L 25.5,25.5" />
  </g>
</svg>